<svg id="SvgjsSvg1006" width="709" height="529" xmlns="http://www.w3.org/2000/svg" version="1.1" xmlns:xlink="http://www.w3.org/1999/xlink" xmlns:svgjs="http://svgjs.com/svgjs"><defs id="SvgjsDefs1007"><marker id="SvgjsMarker1054" markerWidth="14" markerHeight="10" refX="10" refY="5" viewBox="0 0 14 10" orient="auto" markerUnits="userSpaceOnUse" stroke-dasharray="0,0"><path id="SvgjsPath1055" d="M0,0 L14,5 L0,10 L0,0" fill="#323232" stroke="#323232" stroke-width="1"></path></marker><marker id="SvgjsMarker1070" markerWidth="14" markerHeight="10" refX="10" refY="5" viewBox="0 0 14 10" orient="auto" markerUnits="userSpaceOnUse" stroke-dasharray="0,0"><path id="SvgjsPath1071" d="M0,0 L14,5 L0,10 L0,0" fill="#323232" stroke="#323232" stroke-width="1"></path></marker><marker id="SvgjsMarker1074" markerWidth="14" markerHeight="10" refX="10" refY="5" viewBox="0 0 14 10" orient="auto" markerUnits="userSpaceOnUse" stroke-dasharray="0,0"><path id="SvgjsPath1075" d="M0,0 L14,5 L0,10 L0,0" fill="#323232" stroke="#323232" stroke-width="1"></path></marker><marker id="SvgjsMarker1116" markerWidth="14" markerHeight="10" refX="10" refY="5" viewBox="0 0 14 10" orient="auto" markerUnits="userSpaceOnUse" stroke-dasharray="0,0"><path id="SvgjsPath1117" d="M0,0 L14,5 L0,10 L0,0" fill="#323232" stroke="#323232" stroke-width="1"></path></marker><marker id="SvgjsMarker1120" markerWidth="14" markerHeight="10" refX="10" refY="5" viewBox="0 0 14 10" orient="auto" markerUnits="userSpaceOnUse" stroke-dasharray="0,0"><path id="SvgjsPath1121" d="M0,0 L14,5 L0,10 L0,0" fill="#323232" stroke="#323232" stroke-width="1"></path></marker><marker id="SvgjsMarker1130" markerWidth="14" markerHeight="10" refX="10" refY="5" viewBox="0 0 14 10" orient="auto" markerUnits="userSpaceOnUse" stroke-dasharray="0,0"><path id="SvgjsPath1131" d="M0,0 L14,5 L0,10 L0,0" fill="#323232" stroke="#323232" stroke-width="1"></path></marker><marker id="SvgjsMarker1134" markerWidth="14" markerHeight="10" refX="10" refY="5" viewBox="0 0 14 10" orient="auto" markerUnits="userSpaceOnUse" stroke-dasharray="0,0"><path id="SvgjsPath1135" d="M0,0 L14,5 L0,10 L0,0" fill="#323232" stroke="#323232" stroke-width="1"></path></marker><marker id="SvgjsMarker1142" markerWidth="14" markerHeight="10" refX="10" refY="5" viewBox="0 0 14 10" orient="auto" markerUnits="userSpaceOnUse" stroke-dasharray="0,0"><path id="SvgjsPath1143" d="M0,0 L14,5 L0,10 L0,0" fill="#323232" stroke="#323232" stroke-width="1"></path></marker></defs><g id="SvgjsG1008" transform="translate(74,25)"><path id="SvgjsPath1009" d="M 0 4Q 0 0 4 0L 542 0Q 546 0 546 4L 546 104Q 546 108 542 108L 4 108Q 0 108 0 104Z" stroke="rgba(50,50,50,1)" stroke-width="2" fill-opacity="1" fill="#ffffff"></path><g id="SvgjsG1010"><text id="SvgjsText1011" font-family="微软雅黑" text-anchor="middle" font-size="13px" width="526px" fill="#323232" font-weight="400" align="middle" lineHeight="125%" anchor="middle" family="微软雅黑" size="13px" weight="400" font-style="" opacity="1" y="44.375" transform="rotate(0)"></text></g></g><g id="SvgjsG1012" transform="translate(146,44)"><path id="SvgjsPath1013" d="M 0 0L 100 0L 100 70L 0 70Z" stroke="rgba(50,50,50,1)" stroke-width="2" fill-opacity="1" fill="#ffffff"></path><g id="SvgjsG1014"><text id="SvgjsText1015" font-family="微软雅黑" text-anchor="middle" font-size="13px" width="80px" fill="#323232" font-weight="400" align="middle" lineHeight="125%" anchor="middle" family="微软雅黑" size="13px" weight="400" font-style="" opacity="1" y="25.375" transform="rotate(0)"><tspan id="SvgjsTspan1016" dy="16" x="50"><tspan id="SvgjsTspan1017" style="text-decoration:;">生产</tspan></tspan></text></g></g><g id="SvgjsG1018" transform="translate(297,44)"><path id="SvgjsPath1019" d="M 0 0L 100 0L 100 70L 0 70Z" stroke="rgba(50,50,50,1)" stroke-width="2" fill-opacity="1" fill="#ffffff"></path><g id="SvgjsG1020"><text id="SvgjsText1021" font-family="微软雅黑" text-anchor="middle" font-size="13px" width="80px" fill="#323232" font-weight="400" align="middle" lineHeight="125%" anchor="middle" family="微软雅黑" size="13px" weight="400" font-style="" opacity="1" y="25.375" transform="rotate(0)"><tspan id="SvgjsTspan1022" dy="16" x="50"><tspan id="SvgjsTspan1023" style="text-decoration:;">研发</tspan></tspan></text></g></g><g id="SvgjsG1024" transform="translate(448,44)"><path id="SvgjsPath1025" d="M 0 0L 100 0L 100 70L 0 70Z" stroke="rgba(50,50,50,1)" stroke-width="2" fill-opacity="1" fill="#ffffff"></path><g id="SvgjsG1026"><text id="SvgjsText1027" font-family="微软雅黑" text-anchor="middle" font-size="13px" width="80px" fill="#323232" font-weight="400" align="middle" lineHeight="125%" anchor="middle" family="微软雅黑" size="13px" weight="400" font-style="" opacity="1" y="25.375" transform="rotate(0)"><tspan id="SvgjsTspan1028" dy="16" x="50"><tspan id="SvgjsTspan1029" style="text-decoration:;">销售</tspan></tspan></text></g></g><g id="SvgjsG1030" transform="translate(74,183)"><path id="SvgjsPath1031" d="M 0 4Q 0 0 4 0L 347 0Q 351 0 351 4L 351 104Q 351 108 347 108L 4 108Q 0 108 0 104Z" stroke="rgba(50,50,50,1)" stroke-width="2" fill-opacity="1" fill="#ffffff"></path><g id="SvgjsG1032"><text id="SvgjsText1033" font-family="微软雅黑" text-anchor="middle" font-size="13px" width="331px" fill="#323232" font-weight="400" align="middle" lineHeight="125%" anchor="middle" family="微软雅黑" size="13px" weight="400" font-style="" opacity="1" y="44.375" transform="rotate(0)"></text></g></g><g id="SvgjsG1034" transform="translate(146,202)"><path id="SvgjsPath1035" d="M 0 0L 100 0L 100 70L 0 70Z" stroke="rgba(50,50,50,1)" stroke-width="2" fill-opacity="1" fill="#ffffff"></path><g id="SvgjsG1036"><text id="SvgjsText1037" font-family="微软雅黑" text-anchor="middle" font-size="13px" width="80px" fill="#323232" font-weight="400" align="middle" lineHeight="125%" anchor="middle" family="微软雅黑" size="13px" weight="400" font-style="" opacity="1" y="25.375" transform="rotate(0)"><tspan id="SvgjsTspan1038" dy="16" x="50"><tspan id="SvgjsTspan1039" style="text-decoration:;">生产</tspan></tspan></text></g></g><g id="SvgjsG1040" transform="translate(297,202)"><path id="SvgjsPath1041" d="M 0 0L 100 0L 100 70L 0 70Z" stroke="rgba(50,50,50,1)" stroke-width="2" fill-opacity="1" fill="#ffffff"></path><g id="SvgjsG1042"><text id="SvgjsText1043" font-family="微软雅黑" text-anchor="middle" font-size="13px" width="80px" fill="#323232" font-weight="400" align="middle" lineHeight="125%" anchor="middle" family="微软雅黑" size="13px" weight="400" font-style="" opacity="1" y="25.375" transform="rotate(0)"><tspan id="SvgjsTspan1044" dy="16" x="50"><tspan id="SvgjsTspan1045" style="text-decoration:;">研发</tspan></tspan></text></g></g><g id="SvgjsG1046" transform="translate(448,202)"><path id="SvgjsPath1047" d="M 0 0L 100 0L 100 70L 0 70Z" stroke="rgba(50,50,50,1)" stroke-width="2" fill-opacity="1" fill="#ffffff"></path><g id="SvgjsG1048"><text id="SvgjsText1049" font-family="微软雅黑" text-anchor="middle" font-size="13px" width="80px" fill="#323232" font-weight="400" align="middle" lineHeight="125%" anchor="middle" family="微软雅黑" size="13px" weight="400" font-style="" opacity="1" y="25.375" transform="rotate(0)"><tspan id="SvgjsTspan1050" dy="16" x="50"><tspan id="SvgjsTspan1051" style="text-decoration:;">销售</tspan></tspan></text></g></g><g id="SvgjsG1052"><path id="SvgjsPath1053" d="M549 237L567 237L567 195.5L582.4 195.5" stroke="#323232" stroke-width="2" fill="none" marker-end="url(#SvgjsMarker1054)"></path></g><g id="SvgjsG1056" transform="translate(586,183)"><path id="SvgjsPath1057" d="M 0 0L 98 0L 98 25L 0 25Z" stroke="rgba(50,50,50,1)" stroke-width="2" fill-opacity="1" fill="#ffffff"></path><g id="SvgjsG1058"><text id="SvgjsText1059" font-family="微软雅黑" text-anchor="middle" font-size="13px" width="78px" fill="#323232" font-weight="400" align="middle" lineHeight="125%" anchor="middle" family="微软雅黑" size="13px" weight="400" font-style="" opacity="1" y="2.875" transform="rotate(0)"><tspan id="SvgjsTspan1060" dy="16" x="49"><tspan id="SvgjsTspan1061" style="text-decoration:;">地区销售</tspan></tspan></text></g></g><g id="SvgjsG1062" transform="translate(586,266)"><path id="SvgjsPath1063" d="M 0 0L 98 0L 98 25L 0 25Z" stroke="rgba(50,50,50,1)" stroke-width="2" fill-opacity="1" fill="#ffffff"></path><g id="SvgjsG1064"><text id="SvgjsText1065" font-family="微软雅黑" text-anchor="middle" font-size="13px" width="78px" fill="#323232" font-weight="400" align="middle" lineHeight="125%" anchor="middle" family="微软雅黑" size="13px" weight="400" font-style="" opacity="1" y="2.875" transform="rotate(0)"><tspan id="SvgjsTspan1066" dy="16" x="49"><tspan id="SvgjsTspan1067" style="text-decoration:;">品种销售</tspan></tspan></text></g></g><g id="SvgjsG1068"><path id="SvgjsPath1069" d="M549 237L567 237L567 278.5L582.4 278.5" stroke="#323232" stroke-width="2" fill="none" marker-end="url(#SvgjsMarker1070)"></path></g><g id="SvgjsG1072"><path id="SvgjsPath1073" d="M347 134L347 158L347 158L347 179.4" stroke="#323232" stroke-width="2" fill="none" marker-end="url(#SvgjsMarker1074)"></path><rect id="SvgjsRect1076" width="26" height="16" x="334" y="148.70000000000002" fill="#ffffff"></rect><text id="SvgjsText1077" font-family="微软雅黑" text-anchor="middle" font-size="13px" width="26px" fill="#323232" font-weight="400" align="top" lineHeight="16px" anchor="middle" family="微软雅黑" size="13px" weight="400" font-style="" opacity="1" y="147.07500000000002" transform="rotate(0)"><tspan id="SvgjsTspan1078" dy="16" x="347"><tspan id="SvgjsTspan1079" style="text-decoration:;">演化</tspan></tspan></text></g><g id="SvgjsG1080" transform="translate(269,341)"><path id="SvgjsPath1081" d="M 0 4Q 0 0 4 0L 152 0Q 156 0 156 4L 156 104Q 156 108 152 108L 4 108Q 0 108 0 104Z" stroke="rgba(255,0,0,1)" stroke-width="2" fill-opacity="1" fill="#ffffff"></path><g id="SvgjsG1082"><text id="SvgjsText1083" font-family="微软雅黑" text-anchor="middle" font-size="13px" width="136px" fill="#323232" font-weight="400" align="middle" lineHeight="125%" anchor="middle" family="微软雅黑" size="13px" weight="400" font-style="" opacity="1" y="44.375" transform="rotate(0)"></text></g></g><g id="SvgjsG1084" transform="translate(146,360)"><path id="SvgjsPath1085" d="M 0 0L 100 0L 100 70L 0 70Z" stroke="rgba(50,50,50,1)" stroke-width="2" fill-opacity="1" fill="#ffffff"></path><g id="SvgjsG1086"><text id="SvgjsText1087" font-family="微软雅黑" text-anchor="middle" font-size="13px" width="80px" fill="#323232" font-weight="400" align="middle" lineHeight="125%" anchor="middle" family="微软雅黑" size="13px" weight="400" font-style="" opacity="1" y="25.375" transform="rotate(0)"><tspan id="SvgjsTspan1088" dy="16" x="50"><tspan id="SvgjsTspan1089" style="text-decoration:;">生产</tspan></tspan></text></g></g><g id="SvgjsG1090" transform="translate(297,360)"><path id="SvgjsPath1091" d="M 0 0L 100 0L 100 70L 0 70Z" stroke="rgba(255,0,0,1)" stroke-width="2" fill-opacity="1" fill="#ffffff"></path><g id="SvgjsG1092"><text id="SvgjsText1093" font-family="微软雅黑" text-anchor="middle" font-size="13px" width="80px" fill="#ff0000" font-weight="400" align="middle" lineHeight="125%" anchor="middle" family="微软雅黑" size="13px" weight="400" font-style="" opacity="1" y="25.375" transform="rotate(0)"><tspan id="SvgjsTspan1094" dy="16" x="50"><tspan id="SvgjsTspan1095" style="text-decoration:;">研发</tspan></tspan></text></g></g><g id="SvgjsG1096" transform="translate(448,360)"><path id="SvgjsPath1097" d="M 0 0L 100 0L 100 70L 0 70Z" stroke="rgba(50,50,50,1)" stroke-width="2" fill-opacity="1" fill="#ffffff"></path><g id="SvgjsG1098"><text id="SvgjsText1099" font-family="微软雅黑" text-anchor="middle" font-size="13px" width="80px" fill="#323232" font-weight="400" align="middle" lineHeight="125%" anchor="middle" family="微软雅黑" size="13px" weight="400" font-style="" opacity="1" y="25.375" transform="rotate(0)"><tspan id="SvgjsTspan1100" dy="16" x="50"><tspan id="SvgjsTspan1101" style="text-decoration:;">销售</tspan></tspan></text></g></g><g id="SvgjsG1102" transform="translate(571,341)"><path id="SvgjsPath1103" d="M 0 0L 98 0L 98 25L 0 25Z" stroke="rgba(50,50,50,1)" stroke-width="2" fill-opacity="1" fill="#ffffff"></path><g id="SvgjsG1104"><text id="SvgjsText1105" font-family="微软雅黑" text-anchor="middle" font-size="13px" width="78px" fill="#323232" font-weight="400" align="middle" lineHeight="125%" anchor="middle" family="微软雅黑" size="13px" weight="400" font-style="" opacity="1" y="2.875" transform="rotate(0)"><tspan id="SvgjsTspan1106" dy="16" x="49"><tspan id="SvgjsTspan1107" style="text-decoration:;">地区销售</tspan></tspan></text></g></g><g id="SvgjsG1108" transform="translate(571,424)"><path id="SvgjsPath1109" d="M 0 0L 98 0L 98 25L 0 25Z" stroke="rgba(50,50,50,1)" stroke-width="2" fill-opacity="1" fill="#ffffff"></path><g id="SvgjsG1110"><text id="SvgjsText1111" font-family="微软雅黑" text-anchor="middle" font-size="13px" width="78px" fill="#323232" font-weight="400" align="middle" lineHeight="125%" anchor="middle" family="微软雅黑" size="13px" weight="400" font-style="" opacity="1" y="2.875" transform="rotate(0)"><tspan id="SvgjsTspan1112" dy="16" x="49"><tspan id="SvgjsTspan1113" style="text-decoration:;">品种销售</tspan></tspan></text></g></g><g id="SvgjsG1114"><path id="SvgjsPath1115" d="M549 395L559.5 395L559.5 353.5L567.4 353.5" stroke="#323232" stroke-width="2" fill="none" marker-end="url(#SvgjsMarker1116)"></path></g><g id="SvgjsG1118"><path id="SvgjsPath1119" d="M549 395L559.5 395L559.5 436.5L567.4 436.5" stroke="#323232" stroke-width="2" fill="none" marker-end="url(#SvgjsMarker1120)"></path></g><g id="SvgjsG1122" transform="translate(25,382.5)"><path id="SvgjsPath1123" d="M 0 0L 98 0L 98 25L 0 25Z" stroke="rgba(50,50,50,1)" stroke-width="2" fill-opacity="1" fill="#ffffff"></path><g id="SvgjsG1124"><text id="SvgjsText1125" font-family="微软雅黑" text-anchor="middle" font-size="13px" width="78px" fill="#323232" font-weight="400" align="middle" lineHeight="125%" anchor="middle" family="微软雅黑" size="13px" weight="400" font-style="" opacity="1" y="2.875" transform="rotate(0)"><tspan id="SvgjsTspan1126" dy="16" x="49"><tspan id="SvgjsTspan1127" style="text-decoration:;">外部资源</tspan></tspan></text></g></g><g id="SvgjsG1128"><path id="SvgjsPath1129" d="M145 395L134.5 395L134.5 395L126.60000000000002 395" stroke="#323232" stroke-width="2" fill="none" marker-end="url(#SvgjsMarker1130)"></path></g><g id="SvgjsG1132"><path id="SvgjsPath1133" d="M349 291L349 315.5L349 315.5L349 337.4" stroke="#323232" stroke-width="2" fill="none" marker-end="url(#SvgjsMarker1134)"></path><rect id="SvgjsRect1136" width="26" height="16" x="336" y="306.2" fill="#ffffff"></rect><text id="SvgjsText1137" font-family="微软雅黑" text-anchor="middle" font-size="13px" width="26px" fill="#323232" font-weight="400" align="top" lineHeight="16px" anchor="middle" family="微软雅黑" size="13px" weight="400" font-style="" opacity="1" y="304.575" transform="rotate(0)"><tspan id="SvgjsTspan1138" dy="16" x="349"><tspan id="SvgjsTspan1139" style="text-decoration:;">演化</tspan></tspan></text></g><g id="SvgjsG1140"><path id="SvgjsPath1141" d="M347 450L347 466L347 466L347 479.4" stroke="#323232" stroke-width="2" fill="none" marker-end="url(#SvgjsMarker1142)"></path></g><g id="SvgjsG1144" transform="translate(301.5,483)"><path id="SvgjsPath1145" d="M 0 0L 91 0L 91 21L 0 21Z" stroke="rgba(50,50,50,1)" stroke-width="2" fill-opacity="1" fill="#ffffff"></path><g id="SvgjsG1146"><text id="SvgjsText1147" font-family="微软雅黑" text-anchor="middle" font-size="13px" width="71px" fill="#323232" font-weight="400" align="middle" lineHeight="125%" anchor="middle" family="微软雅黑" size="13px" weight="400" font-style="" opacity="1" y="0.875" transform="rotate(0)"><tspan id="SvgjsTspan1148" dy="16" x="45.5"><tspan id="SvgjsTspan1149" style="text-decoration:;">核心</tspan></tspan></text></g></g></svg>